<?xml version="1.0" encoding="utf-8"?>
<!-- Generator: Adobe Illustrator 16.0.0, SVG Export Plug-In . SVG Version: 6.00 Build 0)  -->
<!DOCTYPE svg PUBLIC "-//W3C//DTD SVG 1.1//EN" "http://www.w3.org/Graphics/SVG/1.1/DTD/svg11.dtd">
<svg version="1.1" id="Layer_1" xmlns="http://www.w3.org/2000/svg" xmlns:xlink="http://www.w3.org/1999/xlink" x="0px" y="0px"
	 viewBox="0 0 640 480" enable-background="new 0 0 640 480" xml:space="preserve">
<g>
	<path fill="#AAD2E6" d="M439.7,349.052c-1.393,0.955-2.596,2.049-3.759,3.105c-0.325,0.296-0.652,0.595-0.982,0.887
		c-61.652,47.075-101.036,70.731-111.63,76.859c-9.768-5.624-42.769-25.104-79.502-52.141
		c-57.445-42.28-97.741-83.64-116.531-119.604l-0.104-0.196l-0.116-0.188c-14.445-23.286-24.356-63.986-13.938-102.42
		c8.792-32.433,30.324-57.899,63.972-75.683c13.198-6.889,27.901-10.381,43.702-10.381c43.889,0,86.395,27.243,96.727,38.604
		l3.686,4.047l4.37-3.297c0.478-0.36,48.398-36.062,100.867-36.062c10.186,0,20.008,1.355,29.191,4.029
		c3.052,0.889,74.841,22.567,82.37,92.48c2.292,21.184-0.541,42.007-8.655,63.375l-38.206-48.207l1.993,143.521l128.771-62.305
		l-48.612-8.278c18.448-35.907,25.572-70.704,21.765-106.123c-10.011-92.95-104.683-121.542-108.71-122.713
		c-12.26-3.565-25.329-5.372-38.843-5.372c-58.341,0-110.382,32.791-125.323,43.119C305.081,50.76,255.014,19,199.681,19
		c-21.182,0-40.95,4.71-58.783,14.016c-43.955,23.236-72.118,56.704-83.707,99.47c-13.558,50.032-0.64,103.114,18.206,133.627
		c23.939,45.701,72.45,95.636,144.19,148.423c53.265,39.193,100.244,65.447,100.712,65.708l2.888,1.607l2.902-1.583
		c0.506-0.276,51.566-28.354,139.854-95.776l0.149-0.113l0.143-0.124c7.729-6.709,14.885-13.353,21.807-19.775
		c2.227-2.066,4.409-4.092,6.551-6.063L505.906,348h-64.671L439.7,349.052z"/>
	<path fill="#B03950" d="M257.605,203.336c33.744,0,61.097-27.351,61.097-61.094c0-33.73-27.353-61.083-61.097-61.083
		c-33.73,0-61.083,27.35-61.083,61.083C196.522,175.986,223.873,203.336,257.605,203.336z"/>
	<path fill="#B03950" d="M417.621,253.382c-26.805-3.55-54.396-13.396-84.735-46.494c0,0-31.921,37.037-83.948,47.284
		c2.358,46.119,6.296,106.413,83.948,143.854C384.134,373.99,418.802,337.73,417.621,253.382z M333.676,380.688
		c-31.532-13.007-71.33-55.563-68.571-114.688c36.249-13.796,65.422-33.501,68.571-37.828c0,0,33.1,30.328,68.568,37.828
		C399.109,300.68,389.628,360.585,333.676,380.688z"/>
	<path fill="#B03950" d="M370.325,290.043h-23.242v-23.254c0-1.75-1.422-3.16-3.16-3.16h-20.884c-1.75,0-3.161,1.41-3.161,3.16
		v23.254h-23.253c-1.738,0-3.148,1.41-3.148,3.148v20.884c0,1.738,1.41,3.16,3.148,3.16h23.253v23.254
		c0,1.737,1.411,3.146,3.161,3.146h20.884c1.738,0,3.16-1.409,3.16-3.146v-23.254h23.242c1.735,0,3.157-1.422,3.157-3.16v-20.884
		C373.484,291.453,372.062,290.043,370.325,290.043z"/>
	<path fill="#B03950" d="M235.153,244.715c26.792-6.696,56.354-17.724,60.292-23.643c0,0-46.459,6.09-65.422,2.358
		c-37.656-7.403-72.91,2.771-80.396,19.313c-7.488,16.544-8.022,36.553-14.431,63.575c-5.336,22.512,37.757,46.871,57.29,63.793
		l121.097,74.225v-15.173C313.582,429.165,230.413,366.505,235.153,244.715z"/>
	<path fill="#2D3483" d="M554.098,251.717c24.12-43.479,28.263-79.785,25.015-109.996C570.383,60.665,493.11,29.485,474.694,24.125
		C394.879,0.92,311.612,63.911,311.612,63.911c-16.179-17.796-103.518-74.405-177.908-35.592
		c-113.221,59.854-92.189,177.91-63.09,224.82C127.223,361.494,313.217,465,313.217,465s50.143-27.353,139.085-95.276
		C462.465,360.898,471.838,352,480.529,344h-47.434c-1.458,1-2.855,2.396-4.327,3.687c-73.833,56.391-115.44,79.121-115.44,79.121
		s-154.365-85.938-201.349-175.868C87.826,212.003,70.371,114.01,164.334,64.354c61.737-32.227,134.224,14.748,147.644,29.504
		c0,0,69.118-52.286,135.354-33.007c15.279,4.447,79.412,30.312,86.658,97.596c2.312,21.367,0.133,46.438-12.98,75.748
		L487.406,191.8l1.617,116.479l103.407-50.033L554.098,251.717z"/>
</g>
</svg>
