<?xml version="1.0" encoding="utf-8"?>
<!-- Generator: Adobe Illustrator 16.0.0, SVG Export Plug-In . SVG Version: 6.00 Build 0)  -->
<!DOCTYPE svg PUBLIC "-//W3C//DTD SVG 1.1//EN" "http://www.w3.org/Graphics/SVG/1.1/DTD/svg11.dtd">
<svg version="1.1" id="Layer_1" xmlns="http://www.w3.org/2000/svg" xmlns:xlink="http://www.w3.org/1999/xlink" x="0px" y="0px"
	 viewBox="0 0 640 480" enable-background="new 0 0 640 480" xml:space="preserve">
<g>
	<path fill="#AAD2E6" d="M439.676,349.069c-1.326,0.919-2.491,1.974-3.619,2.991c-0.36,0.325-0.723,0.653-1.091,0.976
		c-61.656,47.074-101.039,70.737-111.635,76.868c-9.768-5.623-42.769-25.104-79.501-52.142
		c-57.445-42.281-97.74-83.64-116.53-119.602l-0.104-0.196l-0.116-0.188c-14.443-23.283-24.355-63.981-13.94-102.418
		c8.79-32.438,30.321-57.913,63.968-75.701c13.196-6.883,27.897-10.373,43.693-10.373c43.901,0,86.412,27.251,96.743,38.615
		l3.688,4.056l4.372-3.308c0.478-0.36,48.275-36.062,100.858-36.062c10.187,0,20.009,1.356,29.196,4.031
		c3.053,0.887,74.828,22.521,82.376,92.464c2.279,21.195-0.557,42.018-8.665,63.374l-38.212-48.208l2.006,143.534l128.758-62.314
		l-48.605-8.274c18.466-35.92,25.592-70.709,21.774-106.113C585.06,58.105,490.395,29.538,486.369,28.368
		c-12.263-3.566-25.335-5.375-38.853-5.375c-58.33,0-110.373,32.784-125.321,43.114C305.084,50.752,255.034,19,199.691,19
		c-21.186,0-40.957,4.71-58.792,14.017C96.94,56.251,68.776,89.72,57.19,132.492c-13.555,50.039-0.633,103.114,18.218,133.618
		c23.937,45.704,72.446,95.639,144.188,148.427c53.266,39.192,100.247,65.445,100.715,65.706l2.888,1.607l2.902-1.583
		c0.505-0.275,51.561-28.342,139.852-95.772l0.151-0.114l0.143-0.125c7.774-6.757,14.973-13.438,21.933-19.9
		c2.18-2.024,4.316-4.01,6.415-5.942L505.895,348h-64.677L439.676,349.069z"/>
	<g>
		<path fill="#B03950" d="M251,399.871c0,0,1.523,6.903,7.459,6.903c7.058,0,8.541-6.903,8.541-6.903V277h-16V399.871z"/>
		<path fill="#B03950" d="M353.716,154.088c-9.231-0.104-17.292-0.152-24.293-0.157c-0.032-7.548-2.418-14.608-6.522-20.672
			c8.568-1.532,15.004-8.152,15.004-16.083c0-9.075-8.42-16.432-18.809-16.432c-10.003,0-18.165,6.831-18.752,15.446
			c-5.503-1.979-11.528-3.078-17.848-3.078c-25.912,0-47.163,18.344-47.163,40.976c0,22.634,20.668,40.977,46.668,40.977v35.475
			c10-1.627,20.384-3.445,27.709-4.835l8.588-34.453l0.222-0.429c2.441-6.616,10.487-17.832,25.06-17.832
			c1.045,0,2.13,0.071,3.19,0.19c5.334,0.594,12.017,1.937,16.237,7.009c5.494,6.583,3.978,15.526,1.868,27.919
			c-2.695,15.859-13.654,44.67-14.314,46.438c-3.095,8.271-15.297,10.776-26.59,12.145C312.904,268.022,297,270.3,282,272.37V361h30
			v31h-22v14h21.605h29.124h22.646h24.267H393v-45h19V211.162C412,211.162,417.619,154.813,353.716,154.088z M363,392h-23v-31h23
			V392z"/>
		<path fill="#B03950" d="M343.963,249.203c0,0,5.667-18.284,11.322-42.438c4.42-18.831,3.236-23.417-9.7-24.877
			c-12.942-1.461-17.797,11.7-17.797,11.7l-9.707,39.517c0,0-47.726,7.316-69.565,10.252c-17.601,2.354-21.029,13.162-21.029,13.162
			c-1.612,17.562,22.651,11.717,22.651,11.717s48.501-7.498,72.797-10.254C342.348,255.797,343.963,249.203,343.963,249.203z"/>
		<path fill="#B03950" d="M215,265.301v23.503c0,0-0.104,6.698,8.496,6.261c7.557-0.396,8.504-7.438,8.504-7.438v-14.104
			c0,0-3.109,0-7.422-1.567C220.266,270.396,215,265.301,215,265.301z"/>
	</g>
	<path fill="#2D3483" d="M554.099,251.707c24.13-43.476,28.282-79.792,25.026-109.986c-8.743-81.05-86.003-112.234-104.431-117.595
		C394.891,0.912,311.607,63.903,311.607,63.903c-16.17-17.797-103.51-74.396-177.903-35.582
		C20.487,88.163,41.51,206.231,70.623,253.136C127.227,361.498,313.229,465,313.229,465s50.135-27.342,139.083-95.272
		c10.16-8.83,19.534-17.728,28.217-25.728h-47.434c-1.442,1-2.853,2.403-4.336,3.688c-73.818,56.373-115.431,79.119-115.431,79.119
		S158.965,340.863,111.983,250.94C87.83,212.007,70.377,114.01,164.334,64.338c61.749-32.208,134.227,14.761,147.649,29.525
		c0,0,69.116-52.292,135.351-33.009c15.288,4.441,79.407,30.315,86.668,97.584c2.299,21.379,0.115,46.442-12.992,75.742
		l-33.604-42.396l1.628,116.489l103.396-50.041L554.099,251.707z"/>
</g>
</svg>
