<?xml version="1.0" encoding="utf-8"?>
<!-- Generator: Adobe Illustrator 16.0.0, SVG Export Plug-In . SVG Version: 6.00 Build 0)  -->
<!DOCTYPE svg PUBLIC "-//W3C//DTD SVG 1.1//EN" "http://www.w3.org/Graphics/SVG/1.1/DTD/svg11.dtd">
<svg version="1.1" id="Layer_1" xmlns="http://www.w3.org/2000/svg" xmlns:xlink="http://www.w3.org/1999/xlink" x="0px" y="0px"
	 viewBox="0 0 640 480" enable-background="new 0 0 640 480" xml:space="preserve">
<g>
	<path fill="#AAD2E6" d="M437.605,350.552c-0.87,0.775-1.741,1.553-2.639,2.335c-61.653,47.068-101.043,70.791-111.641,76.939
		c-9.772-5.624-42.769-25.096-79.495-52.121c-57.444-42.27-97.738-83.622-116.527-119.588l-0.103-0.196l-0.117-0.188
		c-14.443-23.273-24.356-63.958-13.945-102.392c8.788-32.438,30.321-57.912,63.971-75.699c13.195-6.885,27.895-10.374,43.688-10.374
		c43.902,0,86.412,27.256,96.743,38.622l3.686,4.05l4.371-3.298c0.479-0.361,48.399-36.062,100.873-36.062
		c10.184,0,20.004,1.355,29.188,4.027c3.053,0.888,74.831,22.542,82.371,92.472c2.286,21.189-0.548,42.011-8.66,63.376
		l-38.208-48.202l1.999,143.523l128.762-62.312l-48.61-8.278c18.462-35.92,25.586-70.709,21.771-106.109
		c-10.021-92.956-104.686-121.539-108.71-122.71c-12.267-3.569-25.342-5.378-38.862-5.378c-58.332,0-110.368,32.783-125.313,43.112
		C305.079,50.754,255.019,19,199.685,19c-21.185,0-40.954,4.71-58.789,14.016C96.939,56.25,68.776,89.719,57.19,132.489
		c-13.554,50.038-0.631,103.113,18.219,133.615c23.938,45.704,72.445,95.64,144.186,148.429
		c53.264,39.194,100.243,65.449,100.711,65.71l2.896,1.611l2.905-1.594c0.505-0.276,51.558-28.489,139.849-95.914l0.152-0.116
		l0.145-0.125c9.998-8.697,19.569-17.479,28.449-26.099l10.615-10.306h-64.499L437.605,350.552z"/>
	<g>
		<path fill="#B03950" d="M213.894,263.483c1.251,0.629,2.632,0.957,4.032,0.958h46.378c12.676,11.083,29.068,18.021,47.223,18.021
			c18.156,0,34.55-6.938,47.225-18.021h46.379c4.976-0.005,9.005-4.044,8.998-9.021c-0.003-1.398-0.329-2.779-0.957-4.03
			c-8.577-16.812-17.615-35.042-23.734-53.802c-4.264-13.059-5.829-26.854-5.829-40.589v-27.704l-72.08-27.029l-72.079,27.029
			v27.704c0,13.734-1.547,27.53-5.814,40.589c-6.133,18.76-15.171,37.01-23.748,53.802
			C207.652,255.835,209.447,261.251,213.894,263.483z M289.003,142.623c0-1.555,1.26-2.813,2.813-2.813h12.203v-12.203
			c0-1.557,1.26-2.815,2.815-2.815h9.381c1.555,0,2.816,1.26,2.816,2.815v12.203h12.2c1.557,0,2.815,1.26,2.815,2.813v9.381
			c0,1.557-1.261,2.815-2.815,2.815h-12.2v12.203c0,1.555-1.263,2.813-2.816,2.813h-9.381c-1.557,0-2.815-1.26-2.815-2.813V154.82
			h-12.203c-1.555,0-2.813-1.26-2.813-2.815V142.623z M266.479,192.364h90.101v18.019c0,24.882-20.171,45.052-45.052,45.052
			c-24.88,0-45.048-20.17-45.048-45.052L266.479,192.364L266.479,192.364z"/>
		<path fill="#B03950" d="M365.254,282.462l-53.729,53.717L257.8,282.462c-40.257,1.744-72.411,34.688-72.411,75.34
			c0,18.104,14.676,32.777,32.779,32.777h30.318l57.667,53.759l73.307-53.759h25.425c18.103,0,32.777-14.675,32.777-32.777
			C437.663,317.148,405.512,284.206,365.254,282.462z"/>
	</g>
	<path fill="#2D3483" d="M554.096,251.705c24.124-43.478,28.274-79.786,25.021-109.981c-8.736-81.056-86.003-112.232-104.42-117.593
		C394.887,0.91,311.606,63.903,311.606,63.903C295.433,46.112,208.096-10.494,133.7,28.32
		C20.486,88.162,41.513,206.229,70.624,253.131C127.229,361.492,313.223,465,313.223,465s50.139-27.491,139.092-95.422
		c10.148-8.828,19.526-17.447,28.208-25.876h-47.431c-1.443,1.277-2.851,2.548-4.332,3.837
		c-73.824,56.374-115.433,79.193-115.433,79.193s-154.361-85.904-201.343-175.836C87.828,211.97,70.379,113.985,164.335,64.322
		c61.746-32.212,134.226,14.767,147.646,29.532c0,0,69.116-52.279,135.354-33.008c15.287,4.445,79.406,30.32,86.66,97.59
		c2.307,21.376,0.122,46.443-12.985,75.747l-33.604-42.393l1.622,116.48l103.401-50.038L554.096,251.705z"/>
</g>
</svg>
