<?xml version="1.0" encoding="utf-8"?>
<!-- Generator: Adobe Illustrator 16.0.0, SVG Export Plug-In . SVG Version: 6.00 Build 0)  -->
<!DOCTYPE svg PUBLIC "-//W3C//DTD SVG 1.1//EN" "http://www.w3.org/Graphics/SVG/1.1/DTD/svg11.dtd">
<svg version="1.1" id="Layer_1" xmlns="http://www.w3.org/2000/svg" xmlns:xlink="http://www.w3.org/1999/xlink" x="0px" y="0px"
	 viewBox="0 0 640 480" enable-background="new 0 0 640 480" xml:space="preserve">
<g>
	<path fill="#AAD2E6" d="M438.222,349.496c-0.644,0.895-1.277,1.411-2.239,2.195c-0.333,0.271-0.667,0.545-1.005,0.833
		c-61.669,47.082-101.057,70.929-111.665,77.123c-9.799-5.637-42.871-25.14-79.604-52.16
		c-57.379-42.209-97.631-83.515-116.404-119.45l-0.103-0.197l-0.118-0.188c-14.44-23.266-24.354-63.935-13.952-102.346
		c8.785-32.438,30.319-57.915,63.976-75.709c13.189-6.88,27.882-10.369,43.671-10.369c43.899,0,86.427,27.269,96.765,38.641
		l3.687,4.056l4.372-3.307c0.478-0.359,48.278-36.048,100.858-36.048c10.188,0,20.013,1.356,29.202,4.031
		c3.053,0.887,74.826,22.521,82.362,92.475c2.29,21.193-0.543,42.019-8.654,63.38l-38.206-48.211l1.99,143.535l128.771-62.315
		l-48.611-8.272c18.458-35.921,25.582-70.711,21.769-106.112C585.069,58.12,490.401,29.537,486.375,28.365
		c-12.266-3.567-25.339-5.375-38.857-5.375c-58.334,0-110.375,32.783-125.323,43.112C305.082,50.752,255.033,19,199.688,19
		c-21.187,0-40.96,4.711-58.799,14.018C96.937,56.249,68.777,89.714,57.19,132.482c-13.556,50.04-0.635,103.12,18.214,133.627
		c23.939,45.704,72.449,95.639,144.188,148.427c53.264,39.192,100.241,65.446,100.709,65.707l2.915,1.621l2.915-1.618
		c0.506-0.28,51.551-28.834,139.826-96.25l0.151-0.115l0.146-0.126c11.017-9.589,20.094-17.778,28.586-26.592L504.634,347h-64.616
		L438.222,349.496z"/>
	<polygon fill="#B03950" points="372.752,122.189 345.711,82.437 315.796,128.344 326.037,144.322 	"/>
	<polygon fill="#B03950" points="308.419,131.622 288.341,164.399 319.48,147.6 	"/>
	<path fill="#B03950" d="M381.77,125.883l-95.065,44.257l117.199,0.818L381.77,125.883z M371.943,160.063l-7.377,3.874l1.414-8.223
		l-5.978-5.819l8.257-1.2l3.684-7.484l3.695,7.484l8.256,1.2l-5.977,5.819l1.415,8.223L371.943,160.063z"/>
	<path fill="#B03950" d="M376.043,254.145l-2.059-8.604c12.701-5.736,21.721-32.79,21.721-32.79
		c10.654-2.861,9.018-13.114,9.018-13.114l0.817-16.801c0-4.502-9.018-5.736-9.018-5.736H299.4
		c-8.195,0.416-9.838,7.378-9.838,7.378l0.821,13.936c2.875,14.755,10.656,14.34,10.656,14.34
		c4.099,21.719,19.259,32.79,19.259,32.79l-2.043,9.421c4.502,13.117,27.455,15.979,27.455,15.979
		C369.475,272.583,376.043,254.145,376.043,254.145z"/>
	<path fill="#B03950" d="M310.462,257.828c0,0-59.009,5.334-69.25,6.561c-10.241,1.232-11.479,10.252-11.479,10.252l-32.777,9.42
		l43.03-43.029c9.825-3.278,12.284-10.24,14.744-14.743c2.459-4.515,6.154-9.838,6.154-9.838s13.52-12.296,20.898-22.133
		c7.378-9.837-0.405-5.333-0.405-5.333l-22.549,11.072c-11.479,0.403-20.494,6.559-26.222,10.656
		c-5.736,4.101-13.114,18.844-22.133,25.816c-9.018,6.961-54.912,34.833-65.566,42.199c-10.657,7.391-11.479,19.271-15.159,23.771
		c-3.695,4.516-1.236,11.062,5.736,20.077c6.964,9.02,46.301,11.479,68.028,13.116c21.717,1.642,39.834,4.918,48.032,15.172
		c8.197,10.24,14.352,10.24,14.352,10.24h78.579v-81.549C318.66,276.682,310.462,257.828,310.462,257.828z"/>
	<path fill="#B03950" d="M470.99,296.771c0,0,1.758-22.953-16.681-26.647c-18.438-3.685-70.082-11.881-70.082-11.881
		s-9.019,17.618-33.193,20.897v82.366h69.666c0,0,5.738,1.235,8.197-5.322c2.46-6.558,5.322-13.114,5.322-13.114l7.377,19.675
		L480.5,341.5L470.99,296.771z M386.248,333.851h-6.771v-21.516h6.771V333.851z M396.846,333.851h-6.785v-21.516h6.785V333.851z
		 M407.431,333.851h-6.783v-21.516h6.783V333.851z"/>
	<path fill="#2D3483" d="M554.098,251.708c24.119-43.478,28.271-79.792,25.019-109.986c-8.729-81.05-86.003-112.235-104.417-117.595
		C394.885,0.913,311.604,63.903,311.604,63.903C295.434,46.105,208.1-10.493,133.693,28.321
		C20.484,88.163,41.513,206.231,70.62,253.135C127.23,361.497,313.219,465,313.219,465s50.147-27.842,139.097-95.771
		C462.461,360.398,471.847,352,480.52,343h-47.427c-1.438,2-2.854,2.904-4.337,4.188c-73.824,56.373-115.43,79.369-115.43,79.369
		s-154.363-85.818-201.341-175.742c-24.165-38.935-41.604-136.866,52.348-186.539c61.743-32.208,134.225,14.789,147.648,29.556
		c0,0,69.121-52.273,135.354-32.993c15.287,4.442,79.406,30.324,86.653,97.593c2.311,21.381,0.129,46.451-12.98,75.753l-33.603-42.4
		l1.616,116.49l103.406-50.041L554.098,251.708z"/>
</g>
</svg>
