<?xml version="1.0" encoding="utf-8"?>
<!-- Generator: Adobe Illustrator 16.0.0, SVG Export Plug-In . SVG Version: 6.00 Build 0)  -->
<!DOCTYPE svg PUBLIC "-//W3C//DTD SVG 1.1//EN" "http://www.w3.org/Graphics/SVG/1.1/DTD/svg11.dtd">
<svg version="1.1" id="Layer_1" xmlns="http://www.w3.org/2000/svg" xmlns:xlink="http://www.w3.org/1999/xlink" x="0px" y="0px"
	 viewBox="0 0 640 480" enable-background="new 0 0 640 480" xml:space="preserve">
<g>
	<path fill="#AAD2E6" d="M439.665,349.074c-1.314,0.916-2.479,1.966-3.604,2.98c-0.362,0.327-0.729,0.657-1.099,0.979
		c-61.651,47.075-101.038,70.739-111.635,76.871c-9.784-5.635-42.869-25.169-79.618-52.229
		c-57.38-42.251-97.633-83.578-116.407-119.517l-0.103-0.196l-0.117-0.188c-14.443-23.283-24.355-63.981-13.94-102.419
		c8.789-32.438,30.319-57.913,63.962-75.7c13.198-6.883,27.9-10.374,43.697-10.374c43.9,0,86.408,27.251,96.739,38.615l3.688,4.056
		l4.372-3.307c0.478-0.361,48.28-36.062,100.865-36.062c10.186,0,20.008,1.355,29.193,4.03c3.054,0.887,74.829,22.524,82.377,92.464
		c2.28,21.199-0.557,42.023-8.667,63.381l-38.209-48.218l2.006,143.536l128.76-62.315l-48.613-8.271
		c18.469-35.939,25.594-70.732,21.769-106.113C585.068,58.119,490.401,29.537,486.375,28.365
		c-12.266-3.567-25.339-5.376-38.857-5.376c-58.334,0-110.376,32.784-125.324,43.113C305.08,50.752,255.031,19,199.686,19
		c-21.187,0-40.959,4.71-58.798,14.017c-43.953,23.232-72.113,56.697-83.699,99.466c-13.556,50.04-0.634,103.12,18.215,133.627
		c23.939,45.704,72.451,95.639,144.194,148.427c53.267,39.192,100.247,65.446,100.715,65.707l2.889,1.607l2.901-1.583
		c0.505-0.275,51.562-28.342,139.853-95.771l0.152-0.115l0.146-0.126c7.759-6.75,14.956-13.432,21.917-19.892
		c2.184-2.026,4.324-4.015,6.427-5.95L505.901,348h-64.688L439.665,349.074z"/>
	<path fill="#B03950" d="M451.983,247.575l-0.215-0.345l-31.28-25.781c-1.046-1.675-4.441-5.322-14.696-7.223
		c-7.307-1.345-24.094-5.121-35.746-7.771c9.706-12.021,15.005-26.956,15.005-42.507c0-37.341-30.378-67.731-67.731-67.731
		c-37.353,0-67.729,30.393-67.729,67.731c0,15.433,5.215,30.271,14.779,42.247l-43.972,9.35l-0.119,0.036
		c-0.309,0.095-7.508,2.376-11.334,6.689c-2.685,3.017-20.908,18.889-27.705,24.748l-0.309,0.262l-0.214,0.344
		c-0.214,0.345-5.312,8.723-2.97,15.73c1.093,3.275,3.517,5.666,7.198,7.113l0.133,0.061l24.51,6.714l0.808,52.37
		c-0.652,2.992-3.396,20.089,18.31,27.324l0.083,0.021l81.32,21.601c0.582,0.188,2.816,0.844,6.213,0.844l0,0
		c3.196,0,6.465-0.569,9.707-1.688l81.133-21.672l0.285-0.165c0.604-0.331,14.886-8.529,14.886-23l0.404-56.411l19.662-4.634
		c0.381-0.094,9.456-2.48,12.271-9.705C456.354,257.816,455.45,252.921,451.983,247.575z M227.002,281.174l54.722,14.778
		c2.138,0.644,4.205,0.976,6.153,0.976c9.36,0,13.188-7.177,13.841-8.591l6.107-9.858v81.929l-75.396-19.861
		c-6.071-1.914-6.226-8.282-6.226-8.495L227.002,281.174z M302.918,253.622l-16.55,26.245l-90.104-23.715l24.676-22.525
		L302.918,253.622z M317.317,112.862c28.169,0,51.085,22.917,51.085,51.086c0,15.373-6.83,29.784-18.746,39.549
		c-4.322,3.529-9.157,6.321-14.387,8.281c-5.738,2.163-11.787,3.255-17.953,3.255c-6.984,0-13.758-1.39-20.137-4.134
		c-4.622-1.984-8.935-4.646-12.819-7.924c-11.522-9.742-18.129-23.963-18.129-39.027
		C266.231,135.78,289.149,112.862,317.317,112.862z M279.05,219.846c11.298,7.744,24.498,11.833,38.267,11.833
		c13.33,0,26.188-3.851,37.246-11.155l23.107,4.597l-61.72,15.255l-59.677-15.374L279.05,219.846z M331.503,290.154
		c2.661,4.373,6.7,6.677,11.679,6.677c4.135,0,7.746-1.64,8.854-2.187l52.402-13.104l0.393,50.362
		c-0.309,7.888-3.871,8.507-3.932,8.529l-0.25,0.012l-76.203,20.778l-0.733-84.057L331.503,290.154z M436.396,256.141
		l-91.291,23.312l-16.156-26.222l82.426-19.614L436.396,256.141z"/>
	<path fill="#B03950" d="M295.968,190.561c1.7,1.877,4.028,3.469,6.974,4.764c2.958,1.307,6.38,2.15,10.253,2.53
		c0.382,0,0.582,0.214,0.582,0.651v8.307c0,0.333,0.145,0.485,0.43,0.485h6.832c0.318,0,0.484-0.152,0.484-0.485v-8.307
		c0-0.438,0.215-0.651,0.631-0.651c7.142-0.535,12.726-2.661,16.765-6.379c4.04-3.707,6.06-8.604,6.06-14.639
		c0-2.196-0.248-4.218-0.748-6.083c-0.511-1.854-1.177-3.444-2.02-4.774c-0.832-1.343-1.877-2.554-3.125-3.635
		c-1.236-1.082-2.495-1.975-3.777-2.662c-1.271-0.689-2.722-1.309-4.336-1.842c-1.617-0.534-3.102-0.938-4.479-1.225
		c-1.366-0.297-2.864-0.547-4.479-0.771c-0.32-0.071-0.486-0.263-0.486-0.596V138.75c0-0.188,0.082-0.345,0.248-0.451
		c0.156-0.117,0.322-0.143,0.479-0.083c2.139,0.819,3.826,2.009,5.062,3.564c1.246,1.568,1.84,3.125,1.771,4.681
		c0,0.356,0.166,0.535,0.483,0.535h11.537c0.25,0,0.381-0.178,0.381-0.535c0-3.526-0.894-6.677-2.687-9.468
		c-1.794-2.804-4.146-5.014-7.045-6.666c-2.911-1.651-6.188-2.779-9.838-3.396c-0.263-0.097-0.394-0.285-0.394-0.582v-8.233
		c0-0.322-0.166-0.488-0.485-0.488h-6.832c-0.285,0-0.43,0.166-0.43,0.488v7.854c0,0.319-0.166,0.476-0.485,0.476
		c-3.873,0.333-7.449,1.343-10.705,3.042c-3.269,1.687-5.929,4.075-7.996,7.14c-2.067,3.065-3.103,6.522-3.103,10.372
		c0,6.013,1.83,10.526,5.5,13.521c3.659,3.018,9.103,5.038,16.302,6.095c0.319,0,0.485,0.167,0.485,0.487v19.377
		c0,0.152-0.069,0.285-0.201,0.392c-0.118,0.095-0.25,0.119-0.381,0.095c-2.944-0.725-5.311-1.899-7.128-3.517
		c-1.807-1.615-2.709-3.409-2.709-5.394c0-0.357-0.167-0.534-0.485-0.534H291.49c-0.354,0-0.532,0.214-0.532,0.642
		c0,2.209,0.416,4.359,1.233,6.451C293.01,186.699,294.27,188.684,295.968,190.561z M321.523,168.32
		c0-0.416,0.248-0.582,0.727-0.487c3.492,0.713,6.083,1.877,7.78,3.493c1.698,1.616,2.542,3.457,2.542,5.513
		c0,2.473-0.948,4.657-2.84,6.545c-1.89,1.892-4.383,3.149-7.482,3.769c-0.189,0.036-0.355,0-0.499-0.095
		c-0.153-0.097-0.228-0.228-0.228-0.394V168.32L321.523,168.32z M313.575,154.646c-0.119,0.096-0.285,0.131-0.477,0.096
		c-6.142-1.188-9.208-3.766-9.208-7.747c0-2.269,0.855-4.289,2.567-6.059c1.71-1.782,3.92-2.911,6.641-3.398
		c0.154-0.059,0.311-0.047,0.451,0.048c0.154,0.107,0.226,0.249,0.226,0.439v16.217C313.777,154.408,313.706,154.55,313.575,154.646
		z"/>
	<path fill="#2D3483" d="M554.098,251.709c24.121-43.479,28.284-79.794,25.02-109.987c-8.731-81.05-86.004-112.235-104.418-117.595
		C394.886,0.912,311.603,63.903,311.603,63.903C295.434,46.106,208.1-10.493,133.692,28.32
		C20.483,88.162,41.511,206.23,70.619,253.135C127.229,361.497,313.231,465,313.231,465s50.137-27.342,139.084-95.271
		C462.462,360.899,471.847,352,480.531,344h-47.438c-1.438,1-2.853,2.404-4.336,3.688c-73.813,56.373-115.431,79.121-115.431,79.121
		S158.963,340.865,111.986,250.94c-24.151-38.935-41.604-136.93,52.347-186.604c61.755-32.208,134.226,14.759,147.649,29.525
		c0,0,69.121-52.29,135.354-33.009c15.29,4.442,79.407,30.315,86.668,97.584c2.3,21.38,0.116,46.45-12.995,75.751l-33.602-42.403
		l1.628,116.487l103.396-50.041L554.098,251.709z"/>
</g>
</svg>
