<?xml version="1.0" encoding="utf-8"?>
<!-- Generator: Adobe Illustrator 16.0.0, SVG Export Plug-In . SVG Version: 6.00 Build 0)  -->
<!DOCTYPE svg PUBLIC "-//W3C//DTD SVG 1.1//EN" "http://www.w3.org/Graphics/SVG/1.1/DTD/svg11.dtd">
<svg version="1.1" id="Layer_1" xmlns="http://www.w3.org/2000/svg" xmlns:xlink="http://www.w3.org/1999/xlink" x="0px" y="0px"
	 viewBox="0 0 640 480" enable-background="new 0 0 640 480" xml:space="preserve">
<g>
	<g>
		<path fill="#B03950" d="M412.349,156.356l-73.139,73.146c-4.739-2.258-10.044-3.524-15.646-3.524
			c-7.508,0-14.481,2.275-20.277,6.176L199.319,95.612l-16.819,12.807l107.157,140.743c-1.603,4.104-2.49,8.566-2.49,13.24
			c0,5.595,1.265,10.894,3.521,15.63l-11.291,11.291l24.891,24.893l15.584-15.586c1.217,0.123,2.448,0.188,3.696,0.188
			c1.269,0,2.521-0.064,3.75-0.191l15.011,19.714l16.835-12.808l-11.834-15.543c7.751-6.68,12.666-16.557,12.666-27.584
			c0-1.254-0.062-2.49-0.188-3.711l77.435-77.434L412.349,156.356z"/>
		<rect x="310" y="109" fill="#B03950" width="13" height="36"/>
		<rect x="310" y="367" fill="#B03950" width="13" height="36"/>
		<rect x="440" y="248" fill="#B03950" width="36" height="14"/>
		<rect x="135" y="248" fill="#B03950" width="38" height="14"/>
	</g>
	<path fill="#AAD2E6" d="M434.372,352.827c-0.247,0.245-0.493,0.494-0.745,0.723c-61.642,47.063-101.022,70.546-111.604,76.611
		c-9.765-5.631-42.863-25.196-79.632-52.297c-57.381-42.291-97.634-83.641-116.407-119.579l-0.103-0.197l-0.118-0.188
		c-14.448-23.277-24.364-63.983-13.946-102.451c8.79-32.457,30.321-57.941,63.968-75.729c13.203-6.887,27.912-10.378,43.717-10.378
		c43.9,0,86.396,27.232,96.72,38.589l3.688,4.057l4.372-3.308c0.478-0.361,48.281-36.077,100.862-36.077
		c10.183,0,20.001,1.354,29.187,4.029c3.053,0.887,74.826,22.507,82.376,92.458c2.209,20.455-0.349,40.538-7.812,61.108
		l-36.412-45.955l1.993,143.535l128.771-62.315l-51.04-8.686c18.303-35.778,25.356-70.432,21.558-105.7
		C583.745,58.116,489.08,29.537,485.056,28.365c-12.266-3.567-25.339-5.376-38.859-5.376c-58.335,0-110.374,32.783-125.32,43.112
		C303.761,50.751,253.71,19,198.368,19c-21.188,0-40.959,4.71-58.798,14.017c-43.952,23.232-72.112,56.697-83.699,99.467
		c-13.557,50.04-0.636,103.12,18.214,133.627c23.935,45.704,72.441,95.639,144.183,148.427
		c53.266,39.192,100.246,65.446,100.714,65.707l2.862,1.594l2.888-1.547c0.506-0.271,51.584-27.85,139.906-95.295l0.151-0.115
		l0.145-0.125c10.051-8.743,19.584-17.271,28.335-25.345L504.551,349h-62.777C438.238,349,435.911,351.302,434.372,352.827z"/>
	<path fill="#2D3483" d="M553.007,251.299c23.918-43.296,28.034-79.478,24.791-109.577C569.065,60.671,491.796,29.486,473.38,24.127
		C393.564,0.912,310.284,63.902,310.284,63.902C294.113,46.105,206.78-10.494,132.374,28.32
		C19.164,88.162,40.193,206.231,69.3,253.135C125.898,361.496,311.899,465,311.899,465s50.138-26.841,139.097-94.772
		C461.143,361.399,470.529,353,479.198,345h-47.426c-1.45,0-2.854,1.904-4.336,3.188c-73.812,56.373-115.433,78.869-115.433,78.869
		s-154.363-86.069-201.338-175.994C86.501,212.131,69.06,114.071,163.011,64.399c61.754-32.208,134.226,14.728,147.651,29.495
		c0,0,69.12-52.309,135.343-33.024c15.303,4.443,79.407,30.311,86.669,97.576c2.252,20.858,0.232,45.223-12.041,73.607
		l-31.906-40.269l1.617,116.487l103.407-50.041L553.007,251.299z"/>
</g>
</svg>
