<?xml version="1.0" encoding="utf-8"?>
<!-- Generator: Adobe Illustrator 16.0.0, SVG Export Plug-In . SVG Version: 6.00 Build 0)  -->
<!DOCTYPE svg PUBLIC "-//W3C//DTD SVG 1.1//EN" "http://www.w3.org/Graphics/SVG/1.1/DTD/svg11.dtd">
<svg version="1.1" id="Layer_1" xmlns="http://www.w3.org/2000/svg" xmlns:xlink="http://www.w3.org/1999/xlink" x="0px" y="0px"
	 viewBox="0 0 640 480" enable-background="new 0 0 640 480" xml:space="preserve">
<g>
	<path fill="#AAD2E6" d="M436.939,349.49c-0.649,0.9-1.285,1.42-2.248,2.207c-0.33,0.271-0.662,0.542-0.998,0.829
		c-61.659,47.075-101.06,70.928-111.668,77.121c-9.782-5.625-42.77-25.075-79.485-52.074
		c-57.444-42.239-97.739-83.576-116.528-119.538l-0.103-0.196l-0.117-0.188c-14.439-23.277-24.35-63.957-13.941-102.366
		c8.788-32.428,30.32-57.898,63.971-75.688c13.19-6.881,27.885-10.369,43.674-10.369c43.898,0,86.424,27.27,96.762,38.642
		l3.686,4.049l4.37-3.297c0.479-0.359,48.392-36.051,100.856-36.051c10.188,0,20.013,1.356,29.2,4.031
		c3.053,0.887,74.829,22.527,82.377,92.474c2.203,20.438-0.37,40.533-7.861,61.146l-36.438-45.978l1.996,143.533l128.772-62.313
		l-50.984-8.674c18.313-35.791,25.371-70.449,21.565-105.709C583.773,58.114,489.113,29.538,485.087,28.367
		c-12.266-3.568-25.34-5.376-38.859-5.376c-58.333,0-110.374,32.782-125.321,43.11C303.794,50.751,253.746,19,198.401,19
		c-21.186,0-40.957,4.71-58.792,14.017c-43.955,23.232-72.116,56.698-83.705,99.468c-13.557,50.038-0.636,103.118,18.214,133.626
		c23.937,45.703,72.446,95.64,144.188,148.427c53.266,39.192,100.246,65.446,100.714,65.707l2.915,1.622l2.916-1.62
		c0.505-0.279,51.538-28.833,139.819-96.249l0.151-0.115l0.146-0.126c10.984-9.561,20.052-17.739,28.59-26.588l9.81-10.168h-64.633
		L436.939,349.49z"/>
	<path fill="#B03950" d="M424.595,289.475c-8.132-4.887-4.882-21.263-4.882-21.263c3.255-5.688,9.76-18.754,9.76-18.754
		c13.009-11.38,4.068-26.864,4.068-26.864c14.637-49.612-24.402-52.883-24.402-52.883c0.812-4.062-4.871-10.582-4.871-10.582
		c-12.207-0.808-28.472,4.072-28.472,4.072c0-11.394-22.771-21.956-29.272-25.211c-6.512-3.255-0.521-9.744-9.76-10.576
		c-17.894-1.627-30.309,6.083-39.854,10.574c-25.883,12.188-24.392,28.465-24.392,28.465c-3.255-5.703-9.766-8.139-9.766-8.139
		c-68.307,6.511-49.607,64.25-49.607,64.25c-7.316,15.458,5.696,25.209,5.696,25.209c1.628,11.383,10.569,20.328,10.569,20.328
		c4.882,14.638-8.946,22.771-8.946,22.771c-23.583,8.947-36.438,14.562-47.979,30.724c-8.133,11.38-3.255,23.398-3.255,23.398H175
		v20h27.263l109.087,81.671L421.228,365h12.312c5.69,0,3.25-20,3.25-20h42.288C479.893,302,432.728,294.357,424.595,289.475z
		 M422.968,354H223.72c0,0,2.436-27.086,34.969-38.479c32.529-11.383,39.849-23.711,39.849-49.729c0,0-11.383-12.267-13.823-28.527
		c0,0-19.514-12.232-5.691-28.498c0,0-13.015-63.444,52.863-69.955c0,0,4.062,10.563,9.754,11.373
		c5.696,0.818,33.344,5.696,28.465,56.927c10.569-0.808,6.506,22.771-5.693,27.658c4.066,7.312-6.506,21.132-13.012,27.644
		c0,0-2.436,22.773,3.256,30.092c5.692,7.319,28.459,18.146,40.662,25.462C407.517,325.285,425.407,330,422.968,354z"/>
	<path fill="#2D3483" d="M553.028,251.309c23.928-43.303,28.051-79.485,24.802-109.587
		c-8.736-81.051-86.003-112.236-104.418-117.595C393.6,0.913,310.316,63.902,310.316,63.902
		C294.147,46.105,206.808-10.493,132.412,28.32C19.197,88.163,40.226,206.23,69.333,253.135
		C125.938,361.496,311.938,465,311.938,465s50.136-27.842,139.091-95.771C461.175,360.398,470.555,352,479.24,343h-47.435
		c-1.442,2-2.854,2.906-4.331,4.188c-73.824,56.373-115.436,79.369-115.436,79.369s-154.363-85.819-201.347-175.744
		C86.542,211.88,69.089,113.947,163.046,64.275c61.749-32.208,134.225,14.789,147.648,29.557c0,0,69.115-52.273,135.35-32.994
		c15.291,4.444,79.407,30.324,86.668,97.594c2.248,20.86,0.188,45.251-12.093,73.641l-31.931-40.289l1.62,116.489l103.407-50.039
		L553.028,251.309z"/>
</g>
</svg>
