<?xml version="1.0" encoding="utf-8"?>
<!-- Generator: Adobe Illustrator 16.0.0, SVG Export Plug-In . SVG Version: 6.00 Build 0)  -->
<!DOCTYPE svg PUBLIC "-//W3C//DTD SVG 1.1//EN" "http://www.w3.org/Graphics/SVG/1.1/DTD/svg11.dtd">
<svg version="1.1" id="Layer_1" xmlns="http://www.w3.org/2000/svg" xmlns:xlink="http://www.w3.org/1999/xlink" x="0px" y="0px"
	 viewBox="0 0 640 480" enable-background="new 0 0 640 480" xml:space="preserve">
<g>
	<g>
		<path fill="#B03951" d="M425.631,216.608c0,27.04-21.919,48.974-48.978,48.974c-27.026,0-48.96-21.935-48.96-48.974
			c0-27.044,21.934-48.987,48.96-48.987C403.712,167.621,425.631,189.564,425.631,216.608z"/>
		<path fill="#B03951" d="M478.865,349.058l-21.359-45.783c0,0-21.368-19.849-42.755-21.37h-47.778
			c7.029,4.932,11.499,9.073,11.499,9.073l25.384,54.42c9.13,21.232,0.729,29.501-8.482,32.671h34.465
			C429.838,378.068,455.337,354.152,478.865,349.058z"/>
		<path fill="#B03951" d="M176.82,151.283c11.664-2.525,22.313-24.834,25.359-37.012c3.039-12.171,10.13-20.79,16.227-22.31
			c6.077-1.515,17.756,5.065,23.32,5.065c5.572,0,7.596-5.572,18.741-5.572c11.16,0,22.827,20.77,24.845,33.453
			c2.052,12.695,25.863,26.375,25.863,26.375c7.072,10.646-6.6,12.165-6.6,12.165H178.843
			C164.151,158.887,176.82,151.283,176.82,151.283z M185.939,170.548c-2.283,6.248-3.546,13.011-3.546,20.041
			c0,32.605,26.799,59.055,59.833,59.055c33.024,0,59.818-26.45,59.818-59.055c0-7.027-1.247-13.792-3.537-20.041H185.939z"/>
		<path fill="#B03951" d="M346.062,164.866c0,0,27.625-17.376,56.978-0.461c0,0,10.266,4.607,4.45-8.309
			c-5.782-12.899-21.97-18.987-33.803-18.833c-10.686,0.114-27.625,11.141-31.193,20.025
			C338.943,166.178,343.092,167.381,346.062,164.866z"/>
		<path fill="#B03951" d="M371.214,343.582l-25.4-54.419c0,0-25.381-23.581-50.786-25.406H193.466c0,0-41.712,0-52.598,29.041
			l-10.506,19.607l77.486,65.663l56.013,53.003v-96.899c-0.179-3.632-0.494-22.009,11.138-34.216
			c6.579-6.889,15.657-10.432,26.34-10.195c12.503,0.251,22.308,4.098,29.144,11.453c8.247,8.814,9.058,19.539,9.058,23.037
			l0.055,0.012c0,6.126-4.973,11.094-11.065,11.094c-6.147,0-11.102-4.968-11.102-11.094v-0.029h-0.071v0.168
			c0.028-4.531-2.023-12.166-16.448-12.447c-5.9-0.113-8.441,1.842-9.825,3.32c-4.87,5.086-5.245,15.367-5.038,17.835
			c0,0.247,0,0.497,0,0.751v97.211h61.604C347.649,431.071,387.55,381.681,371.214,343.582z"/>
	</g>
	<path fill="#AAD0E4" d="M423.476,341.064c-0.644,0.895-1.276,1.411-2.238,2.195c-0.333,0.271-0.667,0.545-1.006,0.833
		c-61.669,47.082-101.057,70.929-111.666,77.123c-9.798-5.638-42.87-25.141-79.604-52.16
		c-57.379-42.209-97.631-83.515-116.404-119.45l-0.103-0.197l-0.118-0.188c-14.44-23.267-24.354-63.935-13.952-102.347
		c8.785-32.438,30.319-57.915,63.976-75.709c13.189-6.88,27.882-10.369,43.671-10.369c43.899,0,86.427,27.269,96.765,38.641
		l3.687,4.056l4.373-3.307c0.478-0.359,48.278-36.048,100.858-36.048c10.188,0,20.013,1.355,29.202,4.031
		c3.053,0.887,74.826,22.521,82.362,92.475c2.289,21.192-0.543,42.019-8.654,63.38l-38.206-48.211l1.99,143.536l128.771-62.315
		l-48.611-8.271c18.459-35.921,25.582-70.712,21.77-106.113C570.323,49.688,475.655,21.105,471.629,19.933
		c-12.266-3.567-25.339-5.375-38.857-5.375c-58.334,0-110.375,32.783-125.323,43.112c-17.113-15.35-67.162-47.102-122.507-47.102
		c-21.187,0-40.96,4.711-58.799,14.018C82.19,47.817,54.03,81.282,42.443,124.05c-13.556,50.04-0.635,103.121,18.214,133.628
		c23.939,45.704,72.449,95.639,144.188,148.427c53.265,39.192,100.241,65.446,100.709,65.707l2.915,1.621l2.915-1.618
		c0.506-0.28,51.551-28.834,139.827-96.25l0.151-0.115l0.146-0.126c11.018-9.589,20.094-17.778,28.586-26.592l9.794-10.163h-64.616
		L423.476,341.064z"/>
	<path fill="#2C3681" d="M539.352,243.276c24.119-43.479,28.271-79.792,25.02-109.986c-8.729-81.05-86.003-112.235-104.417-117.595
		C380.139-7.519,296.858,55.471,296.858,55.471c-16.17-17.798-103.504-74.396-177.912-35.582
		C5.737,79.731,26.767,197.799,55.874,244.703c56.61,108.362,242.599,211.865,242.599,211.865s50.148-27.842,139.098-95.771
		c10.145-8.83,19.53-17.229,28.203-26.229h-47.427c-1.438,2-2.854,2.904-4.337,4.188c-73.824,56.373-115.43,79.369-115.43,79.369
		S144.216,332.308,97.238,242.383c-24.165-38.935-41.604-136.866,52.348-186.539C211.33,23.636,283.811,70.633,297.235,85.4
		c0,0,69.121-52.273,135.354-32.993c15.287,4.442,79.406,30.324,86.653,97.593c2.311,21.381,0.129,46.451-12.98,75.752
		l-33.603-42.399l1.616,116.491l103.405-50.041L539.352,243.276z"/>
</g>
</svg>
