<?xml version="1.0" encoding="utf-8"?>
<!-- Generator: Adobe Illustrator 16.0.0, SVG Export Plug-In . SVG Version: 6.00 Build 0)  -->
<!DOCTYPE svg PUBLIC "-//W3C//DTD SVG 1.1//EN" "http://www.w3.org/Graphics/SVG/1.1/DTD/svg11.dtd">
<svg version="1.1" id="Layer_1" xmlns="http://www.w3.org/2000/svg" xmlns:xlink="http://www.w3.org/1999/xlink" x="0px" y="0px"
	 viewBox="0 0 640 480" enable-background="new 0 0 640 480" xml:space="preserve">
<g>
	<g>
		<polygon fill="#B03950" points="70.783,238.836 285.885,109.032 482.591,238.74 416.128,239.738 283.592,160.544 204.446,205.833 
			204.446,368.815 160.02,346.638 160.02,225.638 144.005,236.639 		"/>
		<g>
			<rect x="247.103" y="217.665" fill="#B03950" width="44.99" height="39.358"/>
			<rect x="306.146" y="217.665" fill="#B03950" width="44.985" height="39.358"/>
			<rect x="247.103" y="266.859" fill="#B03950" width="44.99" height="39.36"/>
			<rect x="306.146" y="266.859" fill="#B03950" width="44.985" height="39.36"/>
		</g>
		<polygon fill="#B03950" points="411.736,171.736 372.835,150.828 372.835,115.84 411.736,115.84 		"/>
	</g>
	<rect x="263.788" y="324.538" fill="#B03950" width="72.913" height="106.151"/>
	<path fill="#AAD2E6" d="M437.044,350.07l-0.775,0.532c-1.18,0.806-2.51,1.715-3.923,2.932
		c-61.662,47.073-101.043,70.559-111.627,76.628c-9.75-5.622-42.76-25.135-79.507-52.21
		c-57.441-42.323-97.734-83.706-116.523-119.673l-0.103-0.197l-0.118-0.188c-14.449-23.277-24.364-63.983-13.944-102.452
		c8.79-32.452,30.32-57.93,63.964-75.713c13.204-6.89,27.912-10.382,43.72-10.382c43.891,0,86.387,27.229,96.715,38.583l3.686,4.048
		l4.37-3.298c0.479-0.361,48.406-36.074,100.88-36.074c10.18,0,19.997,1.354,29.18,4.024c3.053,0.888,74.827,22.518,82.367,92.454
		c1.93,17.895,0.225,35.426-5.215,53.3l-36.412-45.952l2.008,143.53l128.761-62.312l-49.914-8.491
		c15.526-33.12,21.36-65.279,17.827-98.073c-10.021-92.97-104.688-121.539-108.713-122.71c-12.27-3.57-25.349-5.381-38.874-5.381
		c-58.329,0-110.358,32.781-125.297,43.105C302.454,50.753,252.387,19,197.061,19c-21.183,0-40.951,4.71-58.785,14.015
		c-43.954,23.232-72.114,56.698-83.701,99.467c-13.557,50.038-0.637,103.115,18.212,133.622
		c23.938,45.702,72.447,95.639,144.188,148.429c53.264,39.195,100.242,65.451,100.71,65.712l2.863,1.594l2.888-1.548
		c0.506-0.271,51.578-27.86,139.892-95.293l0.151-0.114l0.144-0.125c9.759-8.482,19.292-17.01,28.341-25.344L503.267,349h-64.681
		L437.044,350.07z"/>
	<path fill="#2D3483" d="M555.717,243.727c20.36-39.967,23.829-73.67,20.774-101.999C567.756,60.668,490.49,29.495,472.071,24.137
		C392.26,0.91,308.986,63.9,308.986,63.9C292.812,46.115,205.475-10.494,131.08,28.318C17.869,88.159,38.896,206.225,68.003,253.129
		C124.611,361.487,310.604,465,310.604,465s50.132-26.854,139.083-94.771C459.839,361.402,469.213,353,477.898,345h-47.434
		c-1.441,1-2.848,1.896-4.328,3.189c-73.824,56.37-115.436,78.869-115.436,78.869S156.35,340.989,109.37,251.057
		c-24.158-38.918-41.612-136.989,52.343-186.648C223.461,32.19,295.941,79.138,309.36,93.892c0,0,69.112-52.293,135.352-33.023
		c15.292,4.442,79.406,30.309,86.658,97.572c2.054,19.04,0.545,40.999-9.064,66.272l-32.281-40.738l1.629,116.48l103.396-50.038
		L555.717,243.727z"/>
</g>
</svg>
