<?xml version="1.0" encoding="UTF-8" standalone="no"?>
<!-- Generator: Adobe Illustrator 16.0.0, SVG Export Plug-In . SVG Version: 6.00 Build 0)  -->

<svg
   version="1.1"
   id="Layer_1"
   x="0px"
   y="0px"
   width="127.50774"
   height="88.023003"
   viewBox="0 0 127.50775 88.023001"
   enable-background="new 0 0 468.244 133.108"
   xml:space="preserve"
   sodipodi:docname="right-accord-logo-solo.svg"
   inkscape:export-filename="right-accord-logo-solo.png"
   inkscape:export-xdpi="96"
   inkscape:export-ydpi="96"
   xmlns:inkscape="http://www.inkscape.org/namespaces/inkscape"
   xmlns:sodipodi="http://sodipodi.sourceforge.net/DTD/sodipodi-0.dtd"
   xmlns="http://www.w3.org/2000/svg"
   xmlns:svg="http://www.w3.org/2000/svg"><defs
   id="defs21" /><sodipodi:namedview
   id="namedview19"
   pagecolor="#ffffff"
   bordercolor="#000000"
   borderopacity="0.25"
   inkscape:showpageshadow="2"
   inkscape:pageopacity="0.0"
   inkscape:pagecheckerboard="0"
   inkscape:deskcolor="#d1d1d1"
   showgrid="false" />
<g
   id="g16"
   transform="translate(-12.765038,-6.104)">
	<g
   id="g10">
		<g
   id="g6">
			<path
   fill="#2d3484"
   d="M 138.318,78.588 84.364,9.632 C 82.632,7.419 79.983,6.12 77.173,6.104 c -0.017,0 -0.033,0 -0.051,0 -2.791,0 -5.433,1.27 -7.179,3.451 L 14.78,78.511 c -3.172,3.966 -2.529,9.75 1.436,12.923 3.965,3.173 9.751,2.528 12.923,-1.436 L 77.044,30.116 123.838,89.92 c 1.812,2.317 4.516,3.529 7.247,3.529 1.981,0 3.978,-0.639 5.66,-1.955 3.999,-3.129 4.703,-8.907 1.573,-12.906 z"
   id="path2" />
			<path
   fill="#2d3484"
   d="M 91.137,82.319 H 62.719 c -3.262,0 -5.905,2.644 -5.905,5.903 0,3.262 2.643,5.905 5.905,5.905 h 28.418 c 3.262,0 5.906,-2.644 5.906,-5.905 0,-3.259 -2.644,-5.903 -5.906,-5.903 z"
   id="path4" />
		</g>
		<path
   fill="#ee212d"
   d="m 88.895,49.268 h -7.893 c -0.281,0 -0.509,0.227 -0.509,0.508 V 61.234 H 72.854 V 49.776 c 0,-0.281 -0.228,-0.508 -0.509,-0.508 h -7.893 c -0.281,0 -0.509,0.227 -0.509,0.508 v 29.537 c 0,0.28 0.228,0.509 0.509,0.509 h 7.893 c 0.281,0 0.509,-0.229 0.509,-0.509 V 62.678 c 3.56,0.301 7.639,1.528 7.639,3.581 v 13.054 c 0,0.28 0.228,0.509 0.509,0.509 h 7.893 c 0.281,0 0.509,-0.229 0.509,-0.509 V 49.776 c 0,-0.281 -0.228,-0.508 -0.509,-0.508 z"
   id="path8" />
	</g>
	
	
</g>
</svg>
